<svg width="210" height="153" viewBox="0 0 210 153" fill="none" xmlns="http://www.w3.org/2000/svg">
<rect x="0.0856934" y="73.5553" width="207.197" height="48.221" fill="#7700FF"/>
<path d="M209.965 0L151.604 73.4463L207.283 143.567H173.993L137.178 91.6006L123.39 108.954H96.7756L124.047 73.0645L97.3743 35.4131H121.404L137.374 55.5264L179.571 0H209.965Z" fill="black"/>
<path d="M73.444 110.234C68.0146 110.234 63.015 109.021 58.4452 106.594C53.9207 104.121 50.301 100.211 47.5863 94.8621C44.8715 89.4684 43.5142 82.4115 43.5142 73.6916C43.5142 65.0616 45.0073 57.8249 47.9934 51.9817C50.9796 46.0935 55.3912 41.6661 61.2278 38.6995C67.0644 35.688 74.2584 34.1822 82.8098 34.1822C84.5291 34.1822 86.2258 34.2496 87.8999 34.3845C89.6192 34.5193 91.1801 34.6991 92.5827 34.9239V-0.000823975H110.432V108.953H95.4332L94.2794 101.132H93.3971C91.2254 103.829 88.4654 106.032 85.1173 107.74C81.7691 109.403 77.878 110.234 73.444 110.234Z" fill="black"/>
<path d="M21.7656 152.029L0.0856934 143.601C2.80041 139.961 16.8035 125.63 18.4324 122.034C20.0612 118.483 23.1228 114.707 23.8467 110.707C24.5706 106.706 26.8178 102.212 26.8178 97.2224L28.703 35.3963H47.4948V96.4133C47.4948 102.167 46.9292 107.493 45.7981 112.392C44.667 117.292 42.8119 122.034 40.233 126.618C37.6992 131.203 25.9734 147.31 21.7656 152.029Z" fill="black"/>
</svg>
