<svg xmlns="http://www.w3.org/2000/svg" width="121" height="121" viewBox="0 0 121 121" fill="none">
  <rect width="121" height="121" rx="20" fill="#844208"/>
  <path d="M80.0754 11C80.0754 11 70.0679 19.0716 65.7028 31.7607C63.9526 36.8549 62.8005 41.7201 62.2789 45.801C56.4835 47.0109 45.8755 53.6319 45.8755 53.6319L37.762 52.7551L40.5623 56.9864L32.1984 58.3074L35.868 61.7521L28.8278 61.4398L29.609 64.4056L23.3499 64.2483L23.9758 69.0597L18.498 68.0076L19.1239 73.4719L14.7426 72.5998L14.5873 77.0619L7.70233 75.97L8.32824 81.122L0 83.5421V101C0 112.046 8.9543 121 20 121H41.37L57.0401 94.2257L48.6947 83.6344L51.6225 81.3626L61.9221 94.4404C62.9653 95.4745 64.0664 96.4369 64.8198 96.7538C68.9206 98.482 77.164 98.6856 80.9751 100.967C83.1194 102.244 85.6995 107.174 88.0501 108.028C88.4581 108.147 88.8835 108.199 89.3089 108.183C91.3674 108.183 94.5596 107.463 94.5596 107.463L97.4549 110.276L100.158 107.962L93.0667 100.717L95.7186 98.128L103.225 105.783L103.733 105.425C103.733 105.425 105.995 92.902 104.474 89.1126C102.668 84.6083 93.8729 78.9774 91.207 74.9197C89.0117 71.5883 87.2666 63.4659 84.8395 60.3034C82.4819 57.2219 77.6138 52.5261 72.7456 49.2873C74.8297 45.7616 76.8975 41.2458 78.6361 36.1887C83.0012 23.4925 80.0754 11 80.0754 11ZM95.3266 16.0201C95.3266 16.0201 90.2267 18.6505 84.677 23.8395C84.4713 28.455 83.6192 33.0189 82.1455 37.3986C80.8866 41.1045 79.3635 44.7157 77.588 48.2046C78.3484 48.7853 79.0879 49.3845 79.8088 49.9883C82.6111 46.8038 85.1639 43.4091 87.4449 39.8342C94.7054 28.5515 95.3266 16.0201 95.3266 16.0201ZM75.2907 65.5299C78.4427 65.5299 80.0205 69.3325 77.792 71.5564C75.5636 73.7803 71.7532 72.2053 71.7532 69.0597C71.7532 67.1102 73.3372 65.5299 75.2907 65.5299ZM100.09 89.1084C100.714 89.1084 101.222 90.7278 101.222 92.7405C101.222 94.7532 100.714 96.3726 100.09 96.3726C99.4669 96.3726 98.9592 94.7462 98.9592 92.7405C98.9592 90.7348 99.4669 89.1084 100.09 89.1084Z" fill="white"/>
</svg>